<!DOCTYPE svg PUBLIC "-//W3C//DTD SVG 1.1//EN" "http://www.w3.org/Graphics/SVG/1.1/DTD/svg11.dtd">
<!-- Uploaded to: SVG Repo, www.svgrepo.com, Transformed by: SVG Repo Mixer Tools -->
<svg width="70px" height="70px" viewBox="-6.4 -6.4 76.80 76.80" data-name="Layer 1" id="Layer_1" xmlns="http://www.w3.org/2000/svg" fill="#ffffff">
<g id="SVGRepo_bgCarrier" stroke-width="0"/>
<g id="SVGRepo_tracerCarrier" stroke-linecap="round" stroke-linejoin="round" stroke="#CCCCCC" stroke-width="1.28">
<defs>
<style>.cls-1{fill:#e8eaee;}</style>
</defs>
<title/>
<path class="cls-1" d="M35.5,60.5a6,6,0,0,1-5.73-4.22l-2.64-8.5A2,2,0,1,1,31,46.6l2.64,8.49a2,2,0,1,0,3.82-1.18L30.78,32.59a2,2,0,0,1,0-1.18l6.63-21.32a2,2,0,1,0-3.82-1.18l-7,22.5a2,2,0,0,0,0,1.18l1.25,4A2,2,0,0,1,24,37.79l-1.25-4a6,6,0,0,1,0-3.56l7-22.5a6,6,0,1,1,11.46,3.56L34.78,32l6.45,20.72A6,6,0,0,1,35.5,60.5Z"/>
</g>
<g id="SVGRepo_iconCarrier">
<defs>
<style>.cls-1{fill:#e8eaee;}</style>
</defs>
<title/>
<path class="cls-1" d="M35.5,60.5a6,6,0,0,1-5.73-4.22l-2.64-8.5A2,2,0,1,1,31,46.6l2.64,8.49a2,2,0,1,0,3.82-1.18L30.78,32.59a2,2,0,0,1,0-1.18l6.63-21.32a2,2,0,1,0-3.82-1.18l-7,22.5a2,2,0,0,0,0,1.18l1.25,4A2,2,0,0,1,24,37.79l-1.25-4a6,6,0,0,1,0-3.56l7-22.5a6,6,0,1,1,11.46,3.56L34.78,32l6.45,20.72A6,6,0,0,1,35.5,60.5Z"/>
</g>
</svg>